<?xml version="1.0" standalone="no"?>
<!DOCTYPE svg PUBLIC "-//W3C//DTD SVG 20010904//EN"
 "http://www.w3.org/TR/2001/REC-SVG-20010904/DTD/svg10.dtd">
<svg version="1.0" xmlns="http://www.w3.org/2000/svg"
 width="1200.000000pt" height="1200.000000pt" viewBox="0 0 1200.000000 1200.000000"
 preserveAspectRatio="xMidYMid meet">

<g transform="translate(0.000000,1200.000000) scale(0.100000,-0.100000)"
fill="#000000" stroke="none">
<path d="M5420 11579 c-313 -21 -582 -68 -909 -160 -1388 -387 -2539 -1227
-3323 -2424 -517 -788 -820 -1669 -910 -2640 -19 -212 -16 -778 5 -995 104
-1025 436 -1939 1000 -2752 578 -833 1402 -1521 2363 -1974 236 -112 540 -216
634 -217 57 -1 124 30 186 86 77 70 77 69 82 691 l4 539 -174 -9 c-298 -15
-708 -11 -818 9 -301 55 -497 141 -636 282 -77 77 -208 268 -300 435 -245 446
-334 562 -655 855 -96 87 -182 170 -192 185 -16 26 -16 28 2 52 11 13 48 40
83 58 56 31 73 35 160 38 82 4 110 0 187 -22 162 -46 323 -141 452 -267 36
-35 121 -131 190 -214 299 -358 479 -528 644 -613 161 -81 418 -112 650 -77
144 22 351 74 378 95 35 28 75 110 118 243 51 158 119 295 213 432 l76 110
-277 56 c-325 66 -438 94 -627 156 -675 220 -1097 572 -1392 1164 -125 250
-190 480 -230 814 -22 175 -31 798 -14 990 37 437 122 662 384 1014 109 147
130 190 123 260 -3 31 -13 81 -21 111 -28 97 -39 271 -33 530 10 424 49 635
138 743 47 57 80 70 194 75 170 7 398 -53 684 -179 160 -71 256 -122 523 -275
l197 -114 193 45 c361 83 565 99 1238 100 689 0 917 -18 1237 -100 96 -25 180
-45 188 -45 7 0 100 52 207 116 485 291 951 466 1237 463 144 -1 169 -23 226
-201 100 -310 122 -804 50 -1123 -42 -183 -37 -201 93 -386 216 -307 340 -627
403 -1041 30 -194 37 -551 15 -766 -50 -478 -217 -987 -426 -1296 -301 -447
-769 -769 -1378 -947 -75 -21 -273 -66 -441 -99 -167 -33 -305 -61 -306 -62
-2 -2 69 -129 156 -283 l159 -280 0 -260 c0 -271 14 -1196 26 -1681 l6 -281
82 -50 c160 -100 175 -102 363 -38 402 138 963 425 1365 701 446 305 905 741
1258 1194 623 801 1029 1771 1160 2772 37 288 44 410 44 748 0 338 -7 460 -44
748 -264 2027 -1614 3779 -3528 4578 -571 238 -1050 341 -1796 384 -206 12
-763 11 -946 -1z"/>
</g>
</svg>
